<svg width="60" height="60" viewBox="0 0 60 60" fill="none" xmlns="http://www.w3.org/2000/svg">
<circle cx="30" cy="30" r="30" fill="#96CDF8"/>
<path d="M30 29.5942C28.35 29.5942 27 29.0531 25.95 27.971C24.9 26.8889 24.375 25.4976 24.375 23.7971C24.375 22.0966 24.9 20.7053 25.95 19.6232C27 18.5411 28.35 18 30 18C31.65 18 33 18.5411 34.05 19.6232C35.1 20.7053 35.625 22.0966 35.625 23.7971C35.625 25.4976 35.1 26.8889 34.05 27.971C33 29.0531 31.65 29.5942 30 29.5942ZM18 42V38.3671C18 37.3881 18.2375 36.5507 18.7125 35.8551C19.1875 35.1594 19.8 34.6312 20.55 34.2705C22.225 33.4976 23.8313 32.9179 25.3688 32.5314C26.9062 32.1449 28.45 31.9517 30 31.9517C31.55 31.9517 33.0875 32.1514 34.6125 32.5507C36.1375 32.9501 37.7365 33.5258 39.4095 34.278C40.1921 34.642 40.8194 35.1697 41.2917 35.8613C41.7639 36.5528 42 37.3881 42 38.3671V42H18ZM20.25 39.6812H39.75V38.3671C39.75 37.9549 39.6313 37.562 39.3938 37.1884C39.1562 36.8148 38.8625 36.5378 38.5125 36.3575C36.9125 35.5588 35.45 35.0113 34.125 34.715C32.8 34.4187 31.425 34.2705 30 34.2705C28.575 34.2705 27.1875 34.4187 25.8375 34.715C24.4875 35.0113 23.025 35.5588 21.45 36.3575C21.1 36.5378 20.8125 36.8148 20.5875 37.1884C20.3625 37.562 20.25 37.9549 20.25 38.3671V39.6812ZM30 27.2754C30.975 27.2754 31.7813 26.9469 32.4188 26.2899C33.0563 25.6329 33.375 24.8019 33.375 23.7971C33.375 22.7923 33.0563 21.9614 32.4188 21.3043C31.7813 20.6473 30.975 20.3188 30 20.3188C29.025 20.3188 28.2188 20.6473 27.5813 21.3043C26.9438 21.9614 26.625 22.7923 26.625 23.7971C26.625 24.8019 26.9438 25.6329 27.5813 26.2899C28.2188 26.9469 29.025 27.2754 30 27.2754Z" fill="#4485B7"/>
</svg>
