<svg width="31" height="24" viewBox="0 0 31 24" fill="none" xmlns="http://www.w3.org/2000/svg">
<path d="M15.5 5.51189C9.5 0.382042 3 0.654079 0.5 1.43133V18.9194C3 18.1422 9.5 17.8702 15.5 23V5.51189Z" fill="#B7B7B7"/>
<path d="M0.5 19V1.43133C3 0.654079 9.5 0.382042 15.5 5.51189V23C9.5 17.8702 3 18.1422 0.5 18.9194" stroke="white" stroke-linecap="round" stroke-linejoin="round"/>
<path d="M15.5 5.51189C21.5 0.382042 28 0.654079 30.5 1.43133V18.9194C28 18.1422 21.5 17.8702 15.5 23V5.51189Z" fill="#B7B7B7"/>
<path d="M30.5 19V1.43133C28 0.654079 21.5 0.382042 15.5 5.51189V23C21.5 17.8702 28 18.1422 30.5 18.9194" stroke="white" stroke-linecap="round" stroke-linejoin="round"/>
<path d="M23.4178 15.006L22.7357 14.4705C20.3134 12.5762 18.7144 11.327 18.6271 9.69774C18.5559 8.37021 19.5875 7.27142 20.9716 7.2005C21.7535 7.16043 22.5227 7.47109 23.0421 7.99769C23.5024 7.42089 24.2341 7.03331 25.0161 6.99325C26.4002 6.92232 27.5436 7.90965 27.6147 9.23718C27.7021 10.8664 26.2453 12.2722 24.0391 14.408L23.4178 15.006Z" fill="white"/>
<path d="M12.6875 9C10.8125 7.06258 7.0625 5.60951 3.3125 6.09388" stroke="white" stroke-linecap="round" stroke-linejoin="round"/>
<path d="M12.6875 15.7334C10.8125 13.796 7.0625 12.3429 3.3125 12.8273" stroke="white" stroke-linecap="round" stroke-linejoin="round"/>
</svg>
