<svg width="175" height="175" viewBox="0 0 175 175" fill="none" xmlns="http://www.w3.org/2000/svg">
<path d="M109.226 87.4174L170.271 26.3725C173.169 23.4804 174.798 19.5559 174.802 15.4623C174.805 11.3686 173.183 7.44126 170.291 4.54408C167.399 1.6469 163.474 0.017249 159.38 0.0136338C155.287 0.0100186 151.359 1.63273 148.462 4.5248L87.4174 65.5697L26.3725 4.5248C23.4753 1.62762 19.5459 0 15.4486 0C11.3514 0 7.42198 1.62762 4.5248 4.5248C1.62762 7.42198 0 11.3514 0 15.4486C0 19.5459 1.62762 23.4753 4.5248 26.3725L65.5697 87.4174L4.5248 148.462C1.62762 151.359 0 155.289 0 159.386C0 163.483 1.62762 167.413 4.5248 170.31C7.42198 173.207 11.3514 174.835 15.4486 174.835C19.5459 174.835 23.4753 173.207 26.3725 170.31L87.4174 109.265L148.462 170.31C151.359 173.207 155.289 174.835 159.386 174.835C163.483 174.835 167.413 173.207 170.31 170.31C173.207 167.413 174.835 163.483 174.835 159.386C174.835 155.289 173.207 151.359 170.31 148.462L109.226 87.4174Z" fill="white"/>
</svg>
