<svg width="31" height="22" viewBox="0 0 31 22" fill="none" xmlns="http://www.w3.org/2000/svg">
<path d="M13.0752 5.67764L9.08191 4.2583L6.17773 8.87116C6.78277 9.10772 8.0612 9.71446 8.71889 11.0002C9.29973 12.1356 9.44494 12.7744 10.897 13.8389L19.9726 18.4517C21.4247 18.4517 20.3356 14.9034 19.6096 14.1937C18.8395 13.441 18.5205 13.484 16.7054 11.7098C15.2533 10.2905 19.2673 10.2905 19.6096 10.2905C20.3356 10.2905 21.9398 11.8585 22.5137 12.4195C23.2398 13.1292 23.2398 13.484 23.6028 13.8389L26.87 12.7744C25.4179 10.7636 22.2233 6.60022 21.0617 6.03248C19.9 5.46474 14.1642 5.67764 13.0752 5.67764Z" fill="#5CB8FF"/>
<path d="M9.08191 4.2583L9.24937 3.78718C9.02885 3.7088 8.78348 3.79386 8.65879 3.99191L9.08191 4.2583ZM13.0752 5.67764L12.9077 6.14877C12.9615 6.16788 13.0181 6.17764 13.0752 6.17764V5.67764ZM21.0617 6.03248L20.8421 6.4817L21.0617 6.03248ZM26.87 12.7744L27.0249 13.2498L27.6767 13.0374L27.2754 12.4816L26.87 12.7744ZM23.6028 13.8389L23.2533 14.1964C23.3864 14.3265 23.5807 14.3719 23.7577 14.3143L23.6028 13.8389ZM22.5137 12.4195L22.1642 12.7771L22.5137 12.4195ZM16.7054 11.7098L16.3559 12.0674L16.7054 11.7098ZM19.6096 14.1937L19.9591 13.8361L19.6096 14.1937ZM19.9726 18.4517L19.746 18.8975C19.8162 18.9331 19.8938 18.9517 19.9726 18.9517V18.4517ZM10.897 13.8389L10.6014 14.2421C10.6232 14.2581 10.6463 14.2723 10.6705 14.2846L10.897 13.8389ZM8.71889 11.0002L8.27375 11.2279L8.71889 11.0002ZM6.17773 8.87116L5.75461 8.60477C5.67518 8.73093 5.65619 8.88595 5.70282 9.02754C5.74944 9.16914 5.85682 9.28255 5.99567 9.33684L6.17773 8.87116ZM8.91446 4.72943L12.9077 6.14877L13.2426 5.20652L9.24937 3.78718L8.91446 4.72943ZM13.0752 6.17764C13.6598 6.17764 15.3084 6.12426 17.036 6.14213C17.8889 6.15095 18.7349 6.17739 19.4353 6.23579C19.7857 6.26501 20.0923 6.30165 20.3412 6.34636C20.5995 6.39273 20.7607 6.44194 20.8421 6.4817L21.2812 5.58326C21.0721 5.48109 20.8001 5.41276 20.518 5.3621C20.2267 5.30978 19.8861 5.26991 19.5184 5.23925C18.7826 5.17789 17.9087 5.15111 17.0464 5.14219C15.3434 5.12457 13.5796 5.17764 13.0752 5.17764V6.17764ZM20.8421 6.4817C21.0432 6.57999 21.405 6.8834 21.8958 7.39042C22.3684 7.87857 22.9126 8.50381 23.4713 9.18061C24.588 10.5333 25.743 12.0678 26.4647 13.0671L27.2754 12.4816C26.5449 11.4702 25.3766 9.91765 24.2425 8.54397C23.6759 7.85762 23.1129 7.20988 22.6143 6.69489C22.1341 6.19875 21.6609 5.76883 21.2812 5.58326L20.8421 6.4817ZM23.9523 13.4813C23.8275 13.3593 23.7776 13.2565 23.6205 13.0007C23.4676 12.7516 23.2615 12.4512 22.8632 12.062L22.1642 12.7771C22.4921 13.0975 22.6489 13.3294 22.7683 13.5238C22.8835 13.7115 23.0151 13.9636 23.2533 14.1964L23.9523 13.4813ZM22.8632 12.062C22.5773 11.7825 22.0183 11.2358 21.4357 10.758C21.145 10.5196 20.8368 10.2886 20.5448 10.1147C20.2745 9.95369 19.9368 9.7905 19.6096 9.7905V10.7905C19.6453 10.7905 19.7804 10.8233 20.033 10.9738C20.264 11.1114 20.5288 11.3075 20.8016 11.5312C21.3461 11.9777 21.8762 12.4955 22.1642 12.7771L22.8632 12.062ZM19.6096 9.7905C19.4425 9.7905 18.3053 9.78913 17.3841 9.97812C17.1506 10.026 16.9162 10.089 16.7075 10.1739C16.506 10.2559 16.2868 10.3748 16.1248 10.5571C15.9445 10.7598 15.8447 11.0339 15.9099 11.3442C15.9678 11.6195 16.143 11.8593 16.3559 12.0674L17.0549 11.3523C16.9048 11.2056 16.8878 11.1349 16.8885 11.1385C16.8902 11.1466 16.8919 11.1678 16.8844 11.1933C16.8774 11.2169 16.8679 11.2262 16.8721 11.2215C16.8875 11.2042 16.9452 11.1568 17.0844 11.1001C17.2163 11.0465 17.3862 10.9985 17.5851 10.9577C18.3934 10.7919 19.4344 10.7905 19.6096 10.7905V9.7905ZM16.3559 12.0674C17.2773 12.968 17.8266 13.4147 18.2475 13.7334C18.6709 14.054 18.9044 14.2036 19.2601 14.5513L19.9591 13.8361C19.5446 13.431 19.2336 13.2258 18.8512 12.9362C18.4663 12.6447 17.9486 12.2258 17.0549 11.3523L16.3559 12.0674ZM19.2601 14.5513C19.3663 14.6551 19.5392 14.9312 19.7157 15.3519C19.8847 15.7543 20.0326 16.2303 20.1163 16.6803C20.2025 17.1435 20.2096 17.522 20.1471 17.7586C20.1174 17.8713 20.0813 17.9151 20.0665 17.9286C20.061 17.9336 20.0438 17.9517 19.9726 17.9517V18.9517C20.2644 18.9517 20.5308 18.8589 20.7408 18.6671C20.9416 18.4838 21.053 18.2449 21.114 18.0138C21.2331 17.5629 21.1948 17.0099 21.0994 16.4974C21.0016 15.9716 20.8319 15.4274 20.6378 14.9649C20.4514 14.5207 20.2159 14.0871 19.9591 13.8361L19.2601 14.5513ZM20.1991 18.006L11.1236 13.3931L10.6705 14.2846L19.746 18.8975L20.1991 18.006ZM11.1926 13.4356C10.5016 12.929 10.1476 12.5435 9.89698 12.1684C9.62781 11.7655 9.47815 11.3865 9.16403 10.7725L8.27375 11.2279C8.54047 11.7493 8.75383 12.2574 9.06549 12.7239C9.3957 13.2181 9.84036 13.6842 10.6014 14.2421L11.1926 13.4356ZM9.16403 10.7725C8.41935 9.31668 6.99194 8.65264 6.3598 8.40549L5.99567 9.33684C6.5736 9.56279 7.70305 10.1122 8.27375 11.2279L9.16403 10.7725ZM26.7151 12.299L23.4479 13.3635L23.7577 14.3143L27.0249 13.2498L26.7151 12.299ZM8.65879 3.99191L5.75461 8.60477L6.60086 9.13756L9.50504 4.52469L8.65879 3.99191Z" fill="white"/>
<path d="M30 17.0322C30 19.4889 27.9592 21.4998 25.4176 21.4998C22.8761 21.4998 20.8353 19.4889 20.8353 17.0322C20.8353 14.5754 22.8761 12.5645 25.4176 12.5645C27.9592 12.5645 30 14.5754 30 17.0322Z" fill="white" stroke="white"/>
<path d="M24.8751 20.4596L24.277 19.9374C22.1526 18.0898 20.7501 16.8712 20.7501 15.3757C20.7501 14.1571 21.7484 13.1997 23.0189 13.1997C23.7366 13.1997 24.4255 13.5202 24.8751 14.0266C25.3248 13.5202 26.0136 13.1997 26.7314 13.1997C28.0019 13.1997 29.0002 14.1571 29.0002 15.3757C29.0002 16.8712 27.5977 18.0898 25.4733 19.9414L24.8751 20.4596Z" fill="#FF893E"/>
<path d="M9.08191 4.2583L13.0752 5.67764C14.1642 5.67764 19.9 5.46474 21.0617 6.03248M19.6096 10.2905C19.2673 10.2905 15.2533 10.2905 16.7054 11.7098C18.5205 13.484 18.8395 13.441 19.6096 14.1937C20.3356 14.9034 21.4247 18.4517 19.9726 18.4517L10.897 13.8389C9.44494 12.7744 9.29973 12.1356 8.71889 11.0002C8.0612 9.71446 6.78277 9.10772 6.17773 8.87116" stroke="white" stroke-linecap="round" stroke-linejoin="round"/>
<rect x="0.694839" y="-0.165043" width="8.28474" height="5.10842" rx="1.5" transform="matrix(0.533078 -0.846066 0.8566 0.515981 0.965811 8.36346)" fill="#FF893E" stroke="white"/>
</svg>
