<svg width="16" height="16" viewBox="0 0 16 16" fill="none" xmlns="http://www.w3.org/2000/svg">
<path d="M7.02191 16C6.74478 16 6.51248 15.9042 6.32501 15.7125C6.13754 15.5208 6.04381 15.2833 6.04381 15V9L0.199694 1.375C-0.0285278 1.09167 -0.0611309 0.791667 0.101885 0.475C0.264901 0.158333 0.517575 0 0.859908 0H15.1401C15.4824 0 15.7351 0.158333 15.8981 0.475C16.0611 0.791667 16.0285 1.09167 15.8003 1.375L9.95619 9V15C9.95619 15.2833 9.86246 15.5208 9.67499 15.7125C9.48752 15.9042 9.25522 16 8.97809 16H7.02191ZM8 9.1L13.8686 1.5H2.13143L8 9.1Z" fill="#5CB8FF"/>
</svg>
