<svg width="31" height="22" viewBox="0 0 31 22" fill="none" xmlns="http://www.w3.org/2000/svg">
<path d="M27.5 0H3.5C1.85 0 0.515 1.0125 0.515 2.25L0.5 15.75C0.5 16.9875 1.85 18 3.5 18H27.5C29.15 18 30.5 16.9875 30.5 15.75V2.25C30.5 1.0125 29.15 0 27.5 0ZM27.5 4.5L21.5 7.3125L15.5 10.125L9.5 7.3125L3.5 4.5V2.25L9.5 5.0625L15.5 7.875L21.5 5.0625L27.5 2.25V4.5Z" fill="#B7B7B7"/>
<path d="M15.5002 7.875L3.50018 2.25V4.5L15.5002 10.125L27.5002 4.5V2.25L15.5002 7.875Z" fill="white"/>
<path d="M8 12.6012V10.2012H23V12.6012H8Z" fill="#D4D4D4"/>
</svg>
