<svg width="125" height="160" viewBox="0 0 125 160" fill="none" xmlns="http://www.w3.org/2000/svg">
<path opacity="0.4" d="M79.5188 71.9264C46.0169 52.4598 18.2093 80.0375 8.49329 96.2597C-26.3738 137.054 54.4292 146.715 100.365 158.703C146.301 170.691 121.396 96.2597 79.5188 71.9264Z" fill="#5CB8FF"/>
<path d="M85.7201 135.296L94.2274 90.7066C95.0049 89.4547 96.7781 88.2594 99.2572 87.4103C101.792 86.5421 104.76 86.1445 107.339 86.3273C110.008 86.5166 111.845 87.2907 112.629 88.3237C113.254 89.1476 113.581 90.7021 111.654 93.6499C108.319 98.7535 106.662 102.804 106.345 107.564C106.035 112.228 107.026 117.463 108.679 124.857C109.585 128.908 108.81 133.419 106.74 136.9C104.683 140.361 101.438 142.678 97.4015 142.711C94.8156 142.731 92.0537 141.23 89.7001 139.328C87.7787 137.775 86.3445 136.133 85.7201 135.296Z" fill="#5CB8FF" stroke="#4485B7" stroke-width="3" stroke-linecap="round"/>
<path d="M46.1277 74.7891C35.2941 66.0899 22.883 39.5416 38.3796 30.2377C42.9275 27.5072 47.6036 30.2377 50.5554 36.3211C58.2055 52.0872 63.3215 69.1352 76.7518 72.9999C88.0625 76.2547 99.2058 96.4841 95.1171 107.532C99.3878 121.607 93.137 148.755 52.1082 140.453C32.3934 144.318 26.2552 134.35 25.6504 128.883C20.5595 125.573 19.0091 119.654 19.0091 115.941C12.7123 112.413 14.354 105.311 16.2418 101.806C0.00736046 75.6837 43.3605 74.7891 46.1277 74.7891Z" fill="#EEC1A4"/>
<path d="M76.7518 114.152C87.5856 116.078 93.1372 112.881 95.1171 107.532M95.1171 107.532C99.2058 96.4841 88.0625 76.2547 76.7518 72.9999C63.3215 69.1352 58.2055 52.0872 50.5554 36.3211C47.6036 30.2377 42.9275 27.5072 38.3796 30.2377C22.883 39.5416 35.2941 66.0899 46.1277 74.7891C43.3605 74.7891 0.00736026 75.6837 16.2418 101.806M95.1171 107.532C99.3878 121.607 93.137 148.755 52.1082 140.453M52.1082 140.453C32.3934 144.318 26.2552 134.35 25.6504 128.883M52.1082 140.453C68.6345 137.214 59.7795 127.188 53.5072 126.485M16.2418 101.806C31.2338 105.567 40.6257 104.103 46.1279 101.189M16.2418 101.806C14.354 105.311 12.7123 112.413 19.0091 115.941M29.1556 85.5244C51.5886 80.8009 54.1221 89.2817 52.5847 94.1126C51.9961 96.2969 50.0504 99.1115 46.1279 101.189M46.1279 101.189C50.9244 100.572 58.1192 104.848 53.5072 112.363C53.1106 113.009 52.6418 113.604 52.1082 114.152M19.0091 115.941C19.8915 116.435 20.9298 116.859 22.1453 117.193C33.4428 120.301 46.4358 119.97 52.1082 114.152M19.0091 115.941C19.0091 119.654 20.5595 125.573 25.6504 128.883M52.1082 114.152C59.2539 114.152 59.8308 118.446 59.2261 120.593C58.7813 122.041 57.1022 124.352 53.5072 126.485M25.6504 128.883C28.4913 130.73 32.4346 131.764 37.8262 131.149C45.1027 130.319 50.1435 128.48 53.5072 126.485" stroke="#BD8F71" stroke-width="3" stroke-linecap="round"/>
<path d="M56.4589 104.49C56.2744 108.128 57.4551 116.013 63.6537 118.446" stroke="#BD8F71" stroke-width="3" stroke-linecap="round"/>
<path d="M35.428 79.083C36.5964 79.5601 38.7118 81.1227 37.8262 83.556" stroke="#BD8F71" stroke-width="3" stroke-linecap="round"/>
<path d="M17.7174 11.8086L10.8916 18.2498L24.3588 29.1639L28.4174 26.6591L17.7174 11.8086Z" fill="#FFED4B"/>
<path d="M41.5155 23.0808L36.1655 24.1544L28.9707 1.96813L41.5155 0V23.0808Z" fill="#FFED4B"/>
<path d="M51.8465 27.0173L48.3413 24.6914L56.0895 8.94629L64.9447 14.3139L51.8465 27.0173Z" fill="#FFED4B"/>
</svg>
