<svg width="257" height="127" viewBox="0 0 257 127" fill="none" xmlns="http://www.w3.org/2000/svg">
<path d="M46 38.608C47.392 38.608 48.448 38.8 49.168 39.184C49.888 39.568 50.248 40.072 50.248 40.696C51.16 40.552 51.952 40.456 52.624 40.408C53.344 40.36 54.136 40.336 55 40.336C58.456 40.336 61.36 41.176 63.712 42.856C66.112 44.536 67.888 46.744 69.04 49.48C70.24 52.216 70.84 55.168 70.84 58.336C70.84 59.152 70.816 59.752 70.768 60.136C70.336 65.896 68.896 70.984 66.448 75.4C64 79.768 60.76 83.152 56.728 85.552C52.744 87.952 48.256 89.152 43.264 89.152C41.872 89.152 40.168 88.984 38.152 88.648C37.384 88.504 36.472 88 35.416 87.136C34.408 86.224 33.544 85.192 32.824 84.04C32.104 82.888 31.744 81.856 31.744 80.944C31.744 80.416 31.816 79.912 31.96 79.432L39.52 50.272C36.784 51.088 34.48 52.144 32.608 53.44C32.032 52.864 31.6 52.144 31.312 51.28C31.024 50.416 30.88 49.528 30.88 48.616C30.88 47.56 31.312 46.624 32.176 45.808C34.432 44.368 37.552 43.144 41.536 42.136C42.448 39.784 43.936 38.608 46 38.608ZM40.96 81.16C42.112 81.448 43.36 81.592 44.704 81.592C48.064 81.592 50.944 80.68 53.344 78.856C55.744 76.984 57.616 74.632 58.96 71.8C60.352 68.968 61.264 66.04 61.696 63.016C61.888 61.816 61.984 60.472 61.984 58.984C61.984 55.624 61.24 52.984 59.752 51.064C58.264 49.096 55.96 48.112 52.84 48.112C51.496 48.112 50.272 48.208 49.168 48.4C48.304 52.144 46.48 59.464 43.696 70.36C42.208 76.216 41.296 79.816 40.96 81.16ZM79.7433 50.704C78.7833 50.368 78.0393 49.864 77.5113 49.192C77.0313 48.472 76.7913 47.632 76.7913 46.672C76.7913 45.28 77.7273 44.176 79.5993 43.36C86.4633 41.968 93.3753 40.984 100.335 40.408C102.207 41.224 103.143 42.328 103.143 43.72C103.143 44.584 102.711 45.424 101.847 46.24C100.983 47.056 99.9993 47.632 98.8953 47.968L94.9353 48.472C94.1193 52.072 92.2473 59.824 89.3193 71.728L87.3033 79.792L92.8473 79.216C94.7193 80.032 95.6553 81.136 95.6553 82.528C95.6553 83.392 95.2233 84.232 94.3593 85.048C93.4953 85.864 92.5113 86.44 91.4073 86.776L88.5273 87.136C81.4713 87.904 76.0473 88.696 72.2553 89.512C71.2953 89.176 70.5752 88.672 70.0952 88C69.5672 87.28 69.3032 86.44 69.3032 85.48C69.3032 84.088 70.2393 82.984 72.1113 82.168C74.5113 81.688 76.3353 81.352 77.5833 81.16L85.5033 49.696C83.5353 49.984 81.6153 50.32 79.7433 50.704ZM145.154 43.072C145.154 43.696 144.89 44.512 144.362 45.52L122.978 64.744C123.89 66.568 126.266 69.784 130.106 74.392C133.946 78.952 136.97 82.288 139.178 84.4C139.37 84.592 139.658 85.072 140.042 85.84C140.426 86.56 140.618 87.064 140.618 87.352C140.618 87.832 140.354 88.312 139.826 88.792C139.346 89.272 138.53 89.512 137.378 89.512C135.41 89.512 134.234 89.392 133.85 89.152C132.218 88 130.034 86.08 127.298 83.392C124.61 80.704 122.042 77.848 119.594 74.824C117.146 71.752 115.442 69.112 114.482 66.904L113.546 70.72C112.97 72.976 111.938 77.128 110.45 83.176L110.09 84.688C109.754 86.032 109.226 86.944 108.506 87.424C107.834 87.904 106.514 88.144 104.546 88.144C103.058 88.144 101.954 87.904 101.234 87.424C100.562 86.944 100.226 86.104 100.226 84.904C100.226 84.376 100.298 83.872 100.442 83.392C107.354 57.424 110.81 44.08 110.81 43.36C111.05 42.352 111.554 41.584 112.322 41.056C113.138 40.528 114.362 40.264 115.994 40.264C117.386 40.264 118.322 40.576 118.802 41.2C119.33 41.776 119.594 42.64 119.594 43.792C119.594 44.512 119.57 45.088 119.522 45.52C119.474 46.24 118.538 50.368 116.714 57.904L116.21 60.064C118.562 57.712 122.33 54.28 127.514 49.768C132.746 45.208 136.37 42.16 138.386 40.624C138.674 40.576 139.178 40.528 139.898 40.48C140.618 40.432 141.314 40.408 141.986 40.408C143.09 40.408 143.858 40.672 144.29 41.2C144.578 41.536 144.794 41.848 144.938 42.136C145.082 42.376 145.154 42.688 145.154 43.072ZM158.719 55.456C158.767 56.944 159.247 58.096 160.159 58.912C161.119 59.68 162.583 60.544 164.551 61.504L166.711 62.584C169.255 63.976 171.247 65.2 172.687 66.256C174.127 67.312 175.351 68.728 176.359 70.504C177.415 72.28 177.943 74.464 177.943 77.056C177.943 79.744 177.103 82.072 175.423 84.04C173.791 85.96 171.511 87.424 168.583 88.432C165.703 89.488 162.463 90.016 158.863 90.016C156.175 90.016 153.655 89.512 151.303 88.504C148.999 87.544 147.151 86.32 145.759 84.832C144.367 83.296 143.671 81.784 143.671 80.296C143.671 78.952 144.175 77.848 145.183 76.984C146.191 76.12 147.631 75.52 149.503 75.184C149.743 76.576 150.439 77.824 151.591 78.928C152.791 80.032 154.159 80.92 155.695 81.592C157.231 82.216 158.599 82.528 159.799 82.528C161.959 82.528 163.855 82.024 165.487 81.016C167.167 80.008 168.007 78.616 168.007 76.84C167.959 75.16 167.383 73.816 166.279 72.808C165.175 71.752 163.399 70.552 160.951 69.208L159.151 68.2C157.183 67.048 155.527 65.968 154.183 64.96C152.839 63.952 151.663 62.632 150.655 61C149.695 59.368 149.215 57.424 149.215 55.168C149.215 52.432 149.959 49.96 151.447 47.752C152.935 45.544 155.023 43.816 157.711 42.568C160.399 41.272 163.471 40.624 166.927 40.624C169.615 40.624 172.015 41.104 174.127 42.064C176.287 43.024 177.967 44.272 179.167 45.808C180.367 47.296 180.967 48.808 180.967 50.344C180.967 51.64 180.511 52.672 179.599 53.44C178.735 54.208 177.703 54.592 176.503 54.592C175.975 54.592 175.591 54.472 175.351 54.232C175.159 53.944 175.015 53.656 174.919 53.368C174.823 53.032 174.751 52.792 174.703 52.648C173.935 51.112 172.879 49.984 171.535 49.264C170.239 48.496 168.847 48.112 167.359 48.112C164.671 48.112 162.559 48.832 161.023 50.272C159.487 51.712 158.719 53.44 158.719 55.456Z" fill="white"/>
<path d="M190.711 50.704C189.751 50.368 189.007 49.864 188.479 49.192C187.999 48.472 187.759 47.632 187.759 46.672C187.759 45.28 188.695 44.176 190.567 43.36C197.431 41.968 204.343 40.984 211.303 40.408C213.175 41.224 214.111 42.328 214.111 43.72C214.111 44.584 213.679 45.424 212.815 46.24C211.951 47.056 210.967 47.632 209.863 47.968L205.903 48.472C205.087 52.072 203.215 59.824 200.287 71.728L198.271 79.792L203.815 79.216C205.687 80.032 206.623 81.136 206.623 82.528C206.623 83.392 206.191 84.232 205.327 85.048C204.463 85.864 203.479 86.44 202.375 86.776L199.495 87.136C192.439 87.904 187.015 88.696 183.223 89.512C182.263 89.176 181.543 88.672 181.063 88C180.535 87.28 180.271 86.44 180.271 85.48C180.271 84.088 181.207 82.984 183.079 82.168C185.479 81.688 187.303 81.352 188.551 81.16L196.471 49.696C194.503 49.984 192.583 50.32 190.711 50.704Z" fill="white"/>
<path d="M241.464 72.016C235.176 73.072 230.16 74.032 226.416 74.896C225.264 76.72 224.52 77.944 224.184 78.568C223.176 80.344 222.264 81.832 221.448 83.032C220.68 84.184 219.84 85.216 218.928 86.128C217.92 87.136 217.08 87.856 216.408 88.288C215.784 88.72 215.04 88.936 214.176 88.936C212.736 88.936 211.464 88.624 210.36 88C209.304 87.328 208.776 86.656 208.776 85.984C208.872 85.888 209.4 84.832 210.36 82.816C211.32 80.752 213.096 78.184 215.688 75.112C215.688 74.728 215.568 74.248 215.328 73.672C215.088 73.096 214.968 72.76 214.968 72.664C214.968 71.272 217.152 69.592 221.52 67.624C223.968 63.976 226.536 60.376 229.224 56.824C231.96 53.272 235.296 49.072 239.232 44.224C240.192 43.024 241.416 42.04 242.904 41.272C244.392 40.504 245.88 40.12 247.368 40.12C248.904 40.12 250.056 40.264 250.824 40.552C251.592 40.84 252.072 41.224 252.264 41.704C252.504 42.184 252.624 42.856 252.624 43.72C252.432 45.16 252.312 46.24 252.264 46.96C251.544 52.768 250.992 57.76 250.608 61.936C250.272 66.064 250.104 70.192 250.104 74.32C250.104 78.112 250.272 81.592 250.608 84.76C250.464 85.912 249.96 86.968 249.096 87.928C248.232 88.84 247.224 89.296 246.072 89.296C243.864 89.296 242.4 88.744 241.68 87.64C241.008 86.536 240.672 84.664 240.672 82.024C240.672 80.104 240.936 76.768 241.464 72.016ZM232.104 66.616C232.968 66.424 234.288 66.208 236.064 65.968L241.824 65.104C242.256 58.432 242.76 53.632 243.336 50.704C241.464 52.912 237.72 58.216 232.104 66.616Z" fill="white"/>
<path d="M5 81C24.7766 100.314 77.6471 127.541 148 94.5659" stroke="#FF893E" stroke-width="8" stroke-linecap="round" stroke-linejoin="round"/>
<path d="M20.5215 45C12.3781 51 7.37805 68.5 24.9655 79.0376" stroke="#FF893E" stroke-width="8" stroke-linecap="round" stroke-linejoin="round"/>
<circle cx="202.499" cy="25.5" r="7.5" fill="#FF3030"/>
<path d="M209.999 25.4998C209.999 29.642 206.641 32.9998 202.499 32.9998C198.357 32.9998 194.999 29.642 194.999 25.4998C195.999 24 199.03 25.7945 201.499 26.5C204.999 27.5 205.999 27.5 209.999 25.4998Z" fill="white"/>
</svg>
